<mxfile host="app.diagrams.net" modified="2024-01-11T12:33:28.663Z" agent="Mozilla/5.0 (Windows NT 10.0; Win64; x64) AppleWebKit/537.36 (KHTML, like Gecko) Chrome/120.0.0.0 Safari/537.36 Edg/120.0.0.0" etag="64R1P-0zc7Bk0NXhCqP2" version="22.1.18" type="github">
  <diagram id="prtHgNgQTEPvFCAcTncT" name="Page-1">
    <mxGraphModel dx="1407" dy="720" grid="1" gridSize="10" guides="1" tooltips="1" connect="1" arrows="1" fold="1" page="1" pageScale="1" pageWidth="827" pageHeight="1169" math="0" shadow="0">
      <root>
        <mxCell id="0" />
        <mxCell id="1" parent="0" />
        <mxCell id="LesqCqWZ4XYTkDxak_rp-1" value="流水管理" style="swimlane;childLayout=stackLayout;resizeParent=1;resizeParentMax=0;startSize=20;html=1;" vertex="1" parent="1">
          <mxGeometry x="140.00000000000045" y="120" width="580" height="620" as="geometry" />
        </mxCell>
        <mxCell id="LesqCqWZ4XYTkDxak_rp-2" value="用户" style="swimlane;startSize=20;html=1;" vertex="1" parent="LesqCqWZ4XYTkDxak_rp-1">
          <mxGeometry y="20" width="290" height="600" as="geometry" />
        </mxCell>
        <mxCell id="LesqCqWZ4XYTkDxak_rp-3" value="流水管理子系统" style="swimlane;startSize=20;html=1;" vertex="1" parent="LesqCqWZ4XYTkDxak_rp-1">
          <mxGeometry x="290" y="20" width="290" height="600" as="geometry" />
        </mxCell>
      </root>
    </mxGraphModel>
  </diagram>
</mxfile>
